<mxfile host="app.diagrams.net" modified="2024-03-08T08:09:44.958Z" agent="Mozilla/5.0 (Windows NT 10.0; Win64; x64) AppleWebKit/537.36 (KHTML, like Gecko) Chrome/122.0.0.0 Safari/537.36 Edg/122.0.0.0" version="24.0.2" etag="FsMpIMt7PvehNWnGJQBq" type="github">
  <diagram name="Page-1" id="Dd_PRaL2J-kHqwynewbs">
    <mxGraphModel>
      <root>
        <mxCell id="0" />
        <mxCell id="1" parent="0" />
      </root>
    </mxGraphModel>
  </diagram>
</mxfile>
